<svg xmlns="http://www.w3.org/2000/svg" viewBox="0 0 64 64" role="img" aria-label="SmartSpend AI">
  <defs>
    <linearGradient id="bg" x1="8" y1="8" x2="56" y2="56" gradientUnits="userSpaceOnUse">
      <stop offset="0" stop-color="#2563eb" />
      <stop offset="0.52" stop-color="#14b8a6" />
      <stop offset="1" stop-color="#22c55e" />
    </linearGradient>
    <linearGradient id="mark" x1="18" y1="45" x2="48" y2="18" gradientUnits="userSpaceOnUse">
      <stop offset="0" stop-color="#ecfeff" />
      <stop offset="1" stop-color="#fef9c3" />
    </linearGradient>
  </defs>
  <rect width="64" height="64" rx="14" fill="#0f172a" />
  <rect x="7" y="7" width="50" height="50" rx="12" fill="url(#bg)" opacity="0.95" />
  <path d="M18 41c5.5-1.1 8.6-7.5 13.3-7.5 3.9 0 5 4.6 8.8 4.6 3.5 0 5.9-4.2 7.9-7.6" fill="none" stroke="url(#mark)" stroke-width="5" stroke-linecap="round" stroke-linejoin="round" />
  <path d="M22 23.8c2.2-3.1 6-5 10.4-5 5.4 0 9.1 2.6 9.1 6.2 0 4.1-3.7 5.1-9.2 6.1-5.1.9-8.5 1.8-8.5 5 0 3.1 3.2 5.2 8.1 5.2 4.7 0 8.6-1.9 10.9-5.1" fill="none" stroke="#ffffff" stroke-width="4.4" stroke-linecap="round" />
  <circle cx="49" cy="17" r="5" fill="#facc15" />
</svg>
